,
Brought to you by  http://www.scenetime.com/signup.php
 
 Hottest scene tracker on the net !!!   
 
No fake torrents from scenebalance 
shame on those who comment fake before downloading my torrents

    seed back for speed


 



...................................NFO:.................................................[pre]

*******************************************************************************
                    Restrepo.2010.DVDRip.XviD.AC3-PRESTiGE 
*******************************************************************************

-------------------------------------------------------------------------------
                              General Information
-------------------------------------------------------------------------------

TiTLE............: Restrepo.2010.DVDRip.XviD.AC3-PRESTiGE

URL..............: http://www.imdb.com/title/tt1559549/

GENRE............: Documentary | War

SOURCE...........: DVD-R TDP MANY THANKS!!!

ENCODED by.......: akosipalos

FiLE SiZE........: 1.37 GB

SUBS.............: N/A

DURATiON.........: 1h 29mn


ViDEO iNFO:

ID                               : 0
Format                           : MPEG-4 Visual
Format profile                   : Advanced Simple@L5
Format settings, BVOP            : Yes
Format settings, QPel            : No
Format settings, GMC             : No warppoints
Format settings, Matrix          : Custom
Codec ID                         : XVID
Codec ID/Hint                    : XviD
Duration                         : 1h 29mn
Bit rate                         : 1 730 Kbps
Width                            : 640 pixels
Height                           : 352 pixels
Display aspect ratio             : 16:9
Frame rate                       : 25.000 fps
Color space                      : YUV
Chroma subsampling               : 4:2:0
Bit depth                        : 8 bits
Scan type                        : Progressive
Bits/(Pixel*Frame)               : 0.307
Stream size                      : 1.08 GiB (79%)
Writing library                  : XviD 58


AUDiO iNFO:

ID                               : 1
Format                           : AC-3
Format/Info                      : Audio Coding 3
Mode extension                   : CM (complete main)
Codec ID                         : 2000
Duration                         : 1h 29mn
Bit rate mode                    : Constant
Bit rate                         : 448 Kbps
Channel(s)                       : 6 channels
Channel positions                : Front: L C R, Side: L R, LFE
Sampling rate                    : 48.0 KHz
Bit depth                        : 16 bits
Stream size                      : 287 MiB (21%)
Alignment                        : Aligned on interleaves
Interleave, duration             : 96 ms (2.40 video frames)
Interleave, preload duration     : 96 ms
Language                         : English



-------------------------------------------------------------------------------
                                 PLOT:
-------------------------------------------------------------------------------

The film follows the 2nd Platoon of Battle Company on a 15-month deployment in the Korengal Valley of northeast Afghanistan. It chronicles the lives of the men from their deployment to the time of their return home. The Korengal Valley was at the time regarded as "the deadliest place on Earth" (as stated in the documentary itself, trailers, and television commercials on the National Geographic Channel). The goal of the deployment is to clear the Korengal Valley of insurgency and continue to gain the trust of the local populace. They begin their deployment at OP Korengal, and early in the campaign PFC Restrepo is killed, as well as another team member. The film portrays the construction of an advanced outpost, OP Restrepo, as well as the challenges and intermittent firefights they faced while they managed to build the outpost from nothing in only one night. In the latter portion of the film, the extremely dangerous mission Operation Rock Avalanche is shown along with some of its tragic consequences, such as dead civilians and soldiers, as well as the emotional distress that the soldiers are left with in its aftermath.

-------------------------------------------------------------------------------
                                 CAST:
-------------------------------------------------------------------------------


The Men of Battle Company 2nd of the 503rd Infantry Regiment 173rd Airborne Brigade Combat Team

Juan 'Doc Restrepo

Dan Kearney

LaMonta Caldwell

Aron Hijar

Misha Pemble-Belkin

Miguel Cortez

Sterling Jones

Brendan O'Byrne 

Joshua McDonough

Kyle Steiner

Angel Toves

Mark Patterson

Stephen Gillespie

Marc Solowski
 

-------------------------------------------------------------------------------
                               Release Notes
-------------------------------------------------------------------------------


PRESTiGE - IS LOOKING FOR?: CAMMER'S, AUDIO SUPPLIERS, SYNCER'S, RETAIL
SUPPLIER'S, SILVER'S, SCREENER'S, LINE CAPPER'S

ENCODER'S - ANYTHING AT ALL EMAIL US AT..... prestige@hushmail.me

** ** ** ** ** ** ** ** **

PRESTiGE is the level of respect at which one is regarded by others....RIzE Above Or Sink Below...


-------------------------------------------------------------------------------
                                 GREETZ:
-------------------------------------------------------------------------------


twisted ,bigguy, CTFX, HiTM4N, smelise, paranoid53, THORN, BMB, Flawl3ss, 
mtyy, fifer, akosipalos, DiLLoN, imagine,"the squad" , floridajoe and To All Encoders Past And Present...


-------------------------------------------------------------------------------
Generated with Cool NFO Creator - http://fly.to/coolbeans
-------------------------------------------------------------------------------
[/pre]